<?xml version="1.0" encoding="UTF-8" standalone="no"?>
<!-- Created with Inkscape (http://www.inkscape.org/) -->

<svg
   width="29.293327mm"
   height="41.739613mm"
   viewBox="0 0 29.293327 41.739613"
   version="1.1"
   id="svg1"
   inkscape:version="1.4.2 (1:1.4.2+202505120738+ebf0e940d0)"
   sodipodi:docname="LabfolderPy.svg"
   xmlns:inkscape="http://www.inkscape.org/namespaces/inkscape"
   xmlns:sodipodi="http://sodipodi.sourceforge.net/DTD/sodipodi-0.dtd"
   xmlns="http://www.w3.org/2000/svg"
   xmlns:svg="http://www.w3.org/2000/svg">
  <sodipodi:namedview
     id="namedview1"
     pagecolor="#ffffff"
     bordercolor="#000000"
     borderopacity="0.25"
     inkscape:showpageshadow="2"
     inkscape:pageopacity="0.0"
     inkscape:pagecheckerboard="0"
     inkscape:deskcolor="#d1d1d1"
     inkscape:document-units="mm"
     inkscape:zoom="0.74653479"
     inkscape:cx="135.29175"
     inkscape:cy="190.88193"
     inkscape:window-width="1578"
     inkscape:window-height="966"
     inkscape:window-x="0"
     inkscape:window-y="0"
     inkscape:window-maximized="1"
     inkscape:current-layer="layer1" />
  <defs
     id="defs1">
    <inkscape:path-effect
       effect="fillet_chamfer"
       id="path-effect765"
       is_visible="true"
       lpeversion="1"
       nodesatellites_param="F,0,0,1,0,0,0,1 @ F,0,0,1,0,0,0,1 @ F,0,0,1,0,0,0,1 @ F,0,0,1,0,0,0,1 @ F,0,0,1,0,0,0,1 @ F,0,0,1,0,0,0,1 @ F,0,0,1,0,0,0,1 @ F,0,0,1,0,0,0,1 @ F,0,0,1,0,0,0,1 @ F,0,0,1,0,0,0,1 @ F,0,0,1,0,0,0,1 @ F,0,0,1,0,0,0,1 @ F,0,0,1,0,0,0,1 @ F,0,0,1,0,0,0,1 @ F,0,0,1,0,0.89361065,0,1 @ F,0,0,1,0,0,0,1 @ F,0,0,1,0,0,0,1 | F,0,0,1,0,2.7564987,0,1 @ F,0,0,1,0,4.0209515,0,1 @ F,0,1,1,0,4.0209515,0,1 @ F,0,0,1,0,0,0,1 @ F,0,0,1,0,0,0,1 @ F,0,0,1,0,1.9849523,0,1 @ F,0,0,1,0,0,0,1 @ F,0,0,1,0,0,0,1 @ F,0,0,1,0,0,0,1 @ F,0,0,1,0,0,0,1 @ F,0,0,1,0,0,0,1 @ F,0,0,1,0,0,0,1 @ F,0,0,1,0,0,0,1 @ F,0,0,1,0,0,0,1 @ F,0,0,1,0,0,0,1 @ F,0,0,1,0,0,0,1 @ F,0,0,1,0,0,0,1 @ F,0,0,1,0,0,0,1 @ F,0,0,1,0,0,0,1 @ F,0,0,1,0,0,0,1 @ F,0,0,1,0,0,0,1 @ F,0,0,1,0,0,0,1 @ F,0,0,1,0,0,0,1 @ F,0,0,1,0,0,0,1 @ F,0,0,1,0,0,0,1"
       radius="0"
       unit="px"
       method="auto"
       mode="F"
       chamfer_steps="1"
       flexible="false"
       use_knot_distance="true"
       apply_no_radius="true"
       apply_with_radius="true"
       only_selected="false"
       hide_knots="false" />
    <inkscape:path-effect
       effect="fillet_chamfer"
       id="path-effect12"
       is_visible="true"
       lpeversion="1"
       nodesatellites_param="F,0,0,1,0,0,0,1 @ F,0,0,1,0,0,0,1 @ F,0,0,1,0,0.78639723,0,1 @ F,0,0,1,0,0.18351996,0,1 @ F,0,0,1,0,0.79591277,0,1 @ F,0,0,1,0,0,0,1 @ F,0,0,1,0,0,0,1 @ F,0,1,1,0,1.1251543,0,1 @ F,0,1,1,0,1.1251543,0,1 @ F,0,0,1,0,1.1251543,0,1 @ F,0,0,1,0,1.0451453,0,1 @ F,0,0,1,0,0,0,1 @ F,0,0,1,0,0,0,1 @ F,0,0,1,0,0,0,1"
       radius="0"
       unit="px"
       method="auto"
       mode="F"
       chamfer_steps="1"
       flexible="false"
       use_knot_distance="true"
       apply_no_radius="true"
       apply_with_radius="true"
       only_selected="false"
       hide_knots="false" />
    <inkscape:path-effect
       effect="fillet_chamfer"
       id="path-effect765-3-7-7"
       is_visible="true"
       lpeversion="1"
       nodesatellites_param="F,0,0,1,0,0,0,1 @ F,0,0,1,0,0,0,1 @ F,0,0,1,0,0,0,1 @ F,0,0,1,0,0,0,1 @ F,0,0,1,0,0,0,1 @ F,0,0,1,0,0,0,1 @ F,0,0,1,0,0,0,1 @ F,0,0,1,0,0,0,1 @ F,0,0,1,0,0,0,1 @ F,0,0,1,0,0,0,1 @ F,0,0,1,0,0,0,1 @ F,0,0,1,0,0,0,1 @ F,0,0,1,0,0,0,1 @ F,0,0,1,0,0,0,1 @ F,0,0,1,0,0.89361065,0,1 @ F,0,0,1,0,0,0,1 @ F,0,0,1,0,0,0,1 | F,0,0,1,0,2.7564987,0,1 @ F,0,0,1,0,4.0209515,0,1 @ F,0,1,1,0,4.0209515,0,1 @ F,0,0,1,0,0,0,1 @ F,0,0,1,0,0,0,1 @ F,0,0,1,0,1.9849523,0,1 @ F,0,0,1,0,0,0,1 @ F,0,0,1,0,0,0,1 @ F,0,0,1,0,0,0,1 @ F,0,0,1,0,0,0,1 @ F,0,0,1,0,0,0,1 @ F,0,0,1,0,0,0,1 @ F,0,0,1,0,0,0,1 @ F,0,0,1,0,0,0,1 @ F,0,0,1,0,0,0,1 @ F,0,0,1,0,0,0,1 @ F,0,0,1,0,0,0,1 @ F,0,0,1,0,0,0,1 @ F,0,0,1,0,0,0,1 @ F,0,0,1,0,0,0,1 @ F,0,0,1,0,0,0,1 @ F,0,0,1,0,0,0,1 @ F,0,0,1,0,0,0,1 @ F,0,0,1,0,0,0,1 @ F,0,0,1,0,0,0,1"
       radius="0"
       unit="px"
       method="auto"
       mode="F"
       chamfer_steps="1"
       flexible="false"
       use_knot_distance="true"
       apply_no_radius="true"
       apply_with_radius="true"
       only_selected="false"
       hide_knots="false" />
    <inkscape:path-effect
       effect="fillet_chamfer"
       id="path-effect12-6-2-7"
       is_visible="true"
       lpeversion="1"
       nodesatellites_param="F,0,0,1,0,0,0,1 @ F,0,0,1,0,0,0,1 @ F,0,0,1,0,0.78639723,0,1 @ F,0,0,1,0,0.18351996,0,1 @ F,0,0,1,0,0.79591277,0,1 @ F,0,0,1,0,0,0,1 @ F,0,0,1,0,0,0,1 @ F,0,1,1,0,1.1251543,0,1 @ F,0,1,1,0,1.1251543,0,1 @ F,0,0,1,0,1.1251543,0,1 @ F,0,0,1,0,1.0451453,0,1 @ F,0,0,1,0,0,0,1 @ F,0,0,1,0,0,0,1 @ F,0,0,1,0,0,0,1"
       radius="0"
       unit="px"
       method="auto"
       mode="F"
       chamfer_steps="1"
       flexible="false"
       use_knot_distance="true"
       apply_no_radius="true"
       apply_with_radius="true"
       only_selected="false"
       hide_knots="false" />
  </defs>
  <g
     inkscape:label="Layer 1"
     inkscape:groupmode="layer"
     id="layer1"
     transform="translate(70.396733,-49.284813)">
    <g
       id="g30"
       transform="matrix(0.47377077,0,0,0.47377077,-444.50819,-2127.2181)"
       style="clip-rule:evenodd;fill-rule:evenodd;stroke-linecap:round;stroke-linejoin:round;stroke-miterlimit:1.5">
      <g
         id="g12-5-2-5"
         style="clip-rule:evenodd;fill-rule:evenodd;stroke-linecap:round;stroke-linejoin:round;stroke-miterlimit:1.5"
         transform="matrix(0.47441912,0,0,0.47441912,1263.237,2889.8865)">
        <g
           id="g762-5-3-2-9"
           style="clip-rule:evenodd;fill-rule:evenodd;stroke-linecap:round;stroke-linejoin:round;stroke-miterlimit:1.5"
           transform="translate(-243.67775,-71.965275)">
          <path
             id="rect756-7-5-6-7"
             style="clip-rule:evenodd;fill:#808285;fill-opacity:1;fill-rule:evenodd;stroke:none;stroke-width:1.23969;stroke-linecap:round;stroke-linejoin:miter;stroke-miterlimit:2;stroke-dasharray:none;stroke-opacity:1;paint-order:markers stroke fill"
             d="m -678.91991,3849.6679 h -59.7832 V 3677.537 Z"
             sodipodi:nodetypes="cccc" />
          <path
             id="path761-6-6-1-7"
             style="clip-rule:evenodd;fill:#808285;fill-opacity:1;fill-rule:evenodd;stroke:none;stroke-width:1.23969;stroke-linecap:round;stroke-linejoin:miter;stroke-miterlimit:2;stroke-dasharray:none;stroke-opacity:1;paint-order:markers stroke fill"
             d="m -678.47655,3848.1191 v -170.8223 h -59.83398 l -0.39258,0.2402 v 172.1309 h 59.7832 z"
             sodipodi:nodetypes="ccccccc" />
          <path
             id="path760-9-2-0-6"
             style="clip-rule:evenodd;fill:#808285;fill-opacity:1;fill-rule:evenodd;stroke:none;stroke-width:17.4917;stroke-linecap:round;stroke-linejoin:miter;stroke-miterlimit:2;stroke-dasharray:none;stroke-opacity:1;paint-order:markers stroke fill"
             d="m -716.58983,3663.9653 -21.7207,11.3301 h 61.83398 v 172.8223 l 7.4082,-32.9571 v -151.1953 z"
             sodipodi:nodetypes="ccccccc" />
        </g>
        <path
           style="baseline-shift:baseline;clip-rule:nonzero;display:inline;overflow:visible;opacity:1;vector-effect:none;fill:#3c74c9;fill-opacity:1;fill-rule:nonzero;stroke-linejoin:miter;stroke-miterlimit:2;paint-order:markers stroke fill;enable-background:accumulate;stop-color:#000000;stop-opacity:1"
           d="m -982.57959,3617.7819 c -1.14695,4.6921 -13.42335,3.7587 -14.75064,8.403 -2.20672,7.7237 -0.57172,17.2081 6.15039,30.6523 1.82553,3.6511 3.23134,14.5027 4.52945,24.0222 0.64905,4.7597 1.22637,9.2591 2.02148,13.1211 0.39756,1.931 0.80818,3.6797 1.58399,5.5898 0.77581,1.9101 1.53794,5.1044 6.72656,6.834 15.41723,6.836 18.38143,-13.4958 9.01758,-15.1992 -0.0833,-0.3343 -0.11019,-0.3385 -0.19531,-0.752 -0.57395,-2.7877 -1.16941,-7.1551 -1.82422,-11.957 -1.30962,-9.6039 -1.78197,-20.6151 -6.215,-29.4812 -5.79498,-11.5899 -7.3208,-15.8976 -6.74587,-17.9093 0.6777,-2.3712 0.29317,-5.4911 -0.045,-7.8851 -0.0782,-0.5535 -0.0423,-1.0849 -0.0452,-1.6364 -0.002,-0.4115 0.001,-0.8234 0.0107,-1.2369 0.0114,-0.4934 0.008,-1.2923 -0.0162,-1.785 -0.009,-0.1898 -0.009,-0.4051 0.0156,-0.6707 0.005,-0.054 -0.21563,-0.1201 -0.21799,-0.1105 z m 69.81738,11.4571 c 0,0 0,0 0,0 0.0103,4.8186 0.0103,4.8186 0.0103,4.8186 -0.3185,2.0702 0.27925,5.1462 -0.40043,6.8948 -0.57342,1.4753 -1.36108,1.8593 -2.12342,2.5005 -0.83208,0.6998 -1.8256,1.9417 -2.52884,2.4944 -0.59512,0.4677 -1.34328,1.0258 -2.13086,1.9121 -0.24308,-0.046 -0.31934,-0.037 -0.59179,-0.098 -4.87089,-1.0917 -7.10314,-2.0898 -20.61109,-1.7146 -4.82811,0.1339 -24.6199,22.9431 -24.4863,27.7712 0.13392,4.8281 15.59171,-12.837 20.41982,-12.9706 11.52624,-0.3202 15.63907,2.8141 20.85139,3.9824 2.60616,0.5841 4.90802,1.4485 8.93165,0.8418 3.19299,-0.4815 6.57391,-3.2038 8.53125,-5.9824 -0.0423,-0.01 -0.16951,0.06 -0.10547,0.01 0.0221,-0.017 0.1418,-0.099 0.17187,-0.1211 0.47262,-0.6854 0.93516,-1.3779 1.19727,-2.0332 -0.47742,1.1935 -0.81534,1.6612 -1.06055,1.9356 0.32924,-0.2409 0.81235,-0.5779 1.56836,-1.1055 0.90505,-0.6316 1.99594,-1.3807 3.25195,-2.5801 1.25602,-1.1994 3.09942,-2.9126 3.74805,-6.6269 1.25838,-7.2063 -2.59011,-14.6299 -8.80273,-18.8594 -1.9176,-1.3058 -3.49274,-4.1618 -5.77198,-3.7289 l -0.0582,0.011 c -0.007,1.4625 -0.0105,2.6466 -0.0102,2.6483 z"
           id="path762-9-6-7"
           sodipodi:nodetypes="ssssssscsssssssssscsssssccsscsscscccsssssccc"
           inkscape:path-effect="#path-effect765-3-7-7"
           inkscape:original-d="m -982.57959,3617.7819 c -1.14695,4.6921 -13.42335,3.7587 -14.75064,8.403 -2.20672,7.7237 -0.57172,17.2081 6.15039,30.6523 1.82553,3.6511 3.23134,14.5027 4.52945,24.0222 0.64905,4.7597 1.22637,9.2591 2.02148,13.1211 0.39756,1.931 0.80818,3.6797 1.58399,5.5898 0.77581,1.9101 1.53794,5.1044 6.72656,6.834 15.41723,6.836 18.38143,-13.4958 9.01758,-15.1992 -0.0833,-0.3343 -0.11019,-0.3385 -0.19531,-0.752 -0.57395,-2.7877 -1.16941,-7.1551 -1.82422,-11.957 -1.30962,-9.6039 -1.78197,-20.6151 -6.215,-29.4812 -5.79498,-11.5899 -7.3208,-15.8976 -6.74587,-17.9093 0.6777,-2.3712 0.29317,-5.4911 -0.045,-7.8851 -0.0782,-0.5535 -0.0423,-1.0849 -0.0452,-1.6364 -0.004,-0.7067 0.009,-1.4144 0.0408,-2.13 0.0213,-0.4827 -0.0992,-0.8329 -0.0308,-1.5626 0.005,-0.054 -0.21563,-0.1201 -0.21799,-0.1105 z m 69.81438,11.4568 c -1.25907,0.1503 -0.17058,-0.9837 0.003,3e-4 0.0592,0.6325 0.22507,3.3018 0.0432,4.0121 -0.0386,0.1508 -0.008,0.6414 -0.0329,0.8065 -0.3185,2.0702 0.27925,5.1462 -0.40043,6.8948 -0.89384,2.2996 -2.30824,1.9477 -3.33585,4.0515 -0.4408,0.3086 -0.78714,0.5274 -1.31641,0.9434 -0.59512,0.4677 -1.34328,1.0258 -2.13086,1.9121 -0.24308,-0.046 -0.31934,-0.037 -0.59179,-0.098 -4.87089,-1.0917 -7.10314,-2.0898 -20.61109,-1.7146 -4.82811,0.1339 -24.6199,22.9431 -24.4863,27.7712 0.13392,4.8281 15.59171,-12.837 20.41982,-12.9706 11.52624,-0.3202 15.63907,2.8141 20.85139,3.9824 2.60616,0.5841 4.90802,1.4485 8.93165,0.8418 3.19299,-0.4815 6.57391,-3.2038 8.53125,-5.9824 -0.0423,-0.01 -0.16951,0.06 -0.10547,0.01 0.0221,-0.017 0.1418,-0.099 0.17187,-0.1211 0.47262,-0.6854 0.93516,-1.3779 1.19727,-2.0332 -0.47742,1.1935 -0.81534,1.6612 -1.06055,1.9356 0.32924,-0.2409 0.81235,-0.5779 1.56836,-1.1055 0.90505,-0.6316 1.99594,-1.3807 3.25195,-2.5801 1.25602,-1.1994 3.09942,-2.9126 3.74805,-6.6269 1.25838,-7.2063 -2.59011,-14.6299 -8.80273,-18.8594 -1.9176,-1.3058 -3.49274,-4.1618 -5.77198,-3.7289 l -0.0582,0.011 z" />
        <path
           id="path2-2-5-6"
           style="fill:#3c74c9;fill-opacity:1;stroke:none;stroke-width:4.96954"
           inkscape:transform-center-y="0.28623894"
           d="m -956.91094,3734.8033 v 14.7824 l -3.53301,6.5809 -8.23555,13.3023 15.63637,-0.4806 15.64141,0.4806 -8.23555,-13.3023 -3.53301,-6.576 v -14.7873 z"
           inkscape:transform-center-x="-6.5210264e-06" />
        <path
           style="baseline-shift:baseline;clip-rule:nonzero;display:inline;overflow:visible;opacity:1;vector-effect:none;fill:#7ba4ca;fill-rule:nonzero;stroke-linecap:butt;stroke-linejoin:miter;enable-background:accumulate;stop-color:#000000;stop-opacity:1"
           d="m -940.27879,3714.5624 c -0.22725,0 -0.13242,-1.6474 -0.24911,-2.0222 -0.0501,-0.161 -0.11473,-0.2098 -0.18079,-0.1905 -0.4021,0.1175 -0.35222,1.0382 -0.40734,1.4691 -0.0503,0.393 -0.12347,0.8906 -0.22229,1.3874 -0.0196,0.099 -0.0996,0.2315 -0.18104,0.2919 -0.0351,0.026 -0.0748,0.054 -0.12042,0.083 -0.37021,0.2333 -1.0809,0.4083 -1.5193,0.4111 -0.62418,0 -1.35691,-0.2074 -2.2335,-0.9293 -0.42604,-0.3518 -1.05664,-0.2914 -1.4082,0.1348 -0.009,0.011 -0.0185,0.022 -0.0277,0.033 -0.33132,0.3905 0.11176,1.2837 0.64538,1.6013 0.35987,0.2141 1.20425,0.3766 1.78943,0.5844 0.0176,0.01 0.0352,0.013 0.0528,0.019 0.57874,0.2019 1.5873,0.053 2.16412,-0.1768 0.8099,-0.323 1.51143,-0.7359 1.98823,-1.1346 0.43693,-0.3654 0.75906,-1.2619 0.93444,-1.8118 0.30361,-0.9518 0.52828,-1.4243 0.52828,-1.4243 0.007,-0.3125 -0.58435,0.042 -0.87969,0.5486 -0.22745,0.3902 -0.43265,1.1322 -0.67329,1.1269 z"
           id="path11-7-9-5"
           sodipodi:nodetypes="ssccssscssccsss"
           inkscape:path-effect="#path-effect12-6-2-7"
           inkscape:original-d="m -940.27879,3714.5624 c -0.22725,0 -0.13242,-1.6474 -0.24911,-2.0222 -0.16692,-0.5362 -0.49449,0.1718 -0.5014,0.4969 0,0 -0.10423,1.2091 -0.3457,2.3477 -0.14344,0.1116 -0.37627,0.3342 -0.99805,0.4961 -0.77479,0.2017 -1.74512,0.2311 -3.01953,-0.8184 -0.42604,-0.3518 -1.05664,-0.2914 -1.4082,0.1348 -0.35136,0.4265 -0.6862,0.5799 -0.25936,0.9309 0.94521,0.7784 0.80944,0.7571 1.60095,0.929 0.65292,0.1417 1.6457,0.6999 2.21433,0.5521 1.89152,-0.4926 3.5081,-1.6016 3.69574,-2.2952 0.44107,-1.6231 0.82331,-2.4269 0.82331,-2.4269 0.007,-0.3125 -0.58435,0.042 -0.87969,0.5486 -0.22745,0.3902 -0.43265,1.1322 -0.67329,1.1269 z" />
        <path
           id="path763-1-1-3"
           style="fill:#3c74c9;fill-opacity:1;stroke-width:11.7675;stroke-linejoin:miter;stroke-miterlimit:2;paint-order:markers stroke fill"
           inkscape:transform-center-x="2.4683112"
           inkscape:transform-center-y="-6.4308983"
           d="m -972.90896,3697.2102 c 2.15511,-2.6348 2.08492,-4.0034 4.03018,-5.1037 5.66386,-3.2041 12.8337,-0.3449 19.15952,9.9723 8.49842,13.8607 5.38047,17.6726 -11.54803,14.1186 -12.87639,-2.7033 -17.77714,-7.3864 -15.67563,-13.4969 0.66136,-1.9229 2.01614,-3.0232 4.03396,-5.4903 z"
           sodipodi:nodetypes="ssssss" />
      </g>
      <text
         xml:space="preserve"
         style="font-style:normal;font-variant:normal;font-weight:normal;font-stretch:semi-condensed;font-size:26.6667px;line-height:1.15;font-family:'DejaVu Sans';-inkscape-font-specification:'DejaVu Sans, Semi-Condensed';font-variant-ligatures:normal;font-variant-caps:normal;font-variant-numeric:normal;font-variant-east-asian:normal;text-align:start;text-anchor:start;white-space:pre;inline-size:773.257;clip-rule:evenodd;display:inline;fill:#808285;fill-opacity:1;fill-rule:evenodd;stroke-linecap:round;stroke-linejoin:round;stroke-miterlimit:1.5"
         x="-747.63879"
         y="870.99951"
         id="text38-6-9-0-5-7-9-6"
         transform="matrix(0,-0.62154534,0.62154534,0,306.6634,4217.8095)"><tspan
           x="-747.63879"
           y="870.99951"
           id="tspan4">Labfolder<tspan
   style="fill:#3c74c9"
   id="tspan3">Py</tspan></tspan></text>
    </g>
  </g>
</svg>
